Coordinates
version=1
nRows=37
nColumns=38
inDegrees=no

Units are S.I. units (second, meters, Newtons, ...)
If the header above contains a line with 'inDegrees', this indicates whether rotational values are in degrees (yes) or radians (no).

endheader
time	pelvis_tilt	pelvis_list	pelvis_rotation	pelvis_tx	pelvis_ty	pelvis_tz	hip_flexion_r	hip_adduction_r	hip_rotation_r	knee_angle_r	ankle_angle_r	subtalar_angle_r	mtp_angle_r	hip_flexion_l	hip_adduction_l	hip_rotation_l	knee_angle_l	ankle_angle_l	subtalar_angle_l	mtp_angle_l	lumbar_extension	lumbar_bending	lumbar_rotation	arm_flex_r	arm_add_r	arm_rot_r	elbow_flex_r	pro_sup_r	wrist_flex_r	wrist_dev_r	arm_flex_l	arm_add_l	arm_rot_l	elbow_flex_l	pro_sup_l	wrist_flex_l	wrist_dev_l
0	-0.09547	1.30108	-1.47225	0.972762	1.46113	0.93758	-0.415484	-0.0343314	-0.156171	0.778104	-0.399251	0	0	-0.00777862	-0.0493925	-0.460781	0.406713	-0.252795	0	0	-0.386169	0.0560235	-0.122538	-0.107416	-0.0592661	-0.612324	0.639008	0.693109	0	0	-0.287375	-0.254624	0.0708979	0.734416	1.43421	0	0
0.01	-0.0644189	1.29905	-1.49412	0.973708	1.45095	0.939635	-0.388765	-0.0478212	-0.158347	0.834611	-0.445084	0	0	-0.034427	-0.0163282	-0.392554	0.35937	-0.247117	0	0	-0.387291	0.0502205	-0.132123	-0.107183	-0.054749	-0.621064	0.636396	0.702721	0	0	-0.28149	-0.259333	0.0772348	0.73164	1.43895	0	0
0.02	-0.0465508	1.29433	-1.50505	0.974972	1.44033	0.9412	-0.366179	-0.0581086	-0.157152	0.886186	-0.483155	0	0	-0.0564	-0.0101016	-0.393881	0.351519	-0.243936	0	0	-0.390692	0.048411	-0.141054	-0.110843	-0.0521415	-0.625141	0.641967	0.7112	0	0	-0.280459	-0.263749	0.0811105	0.737121	1.43927	0	0
0.03	-0.0319166	1.28959	-1.5133	0.976182	1.42992	0.942602	-0.34387	-0.0673967	-0.155548	0.93267	-0.518071	0	0	-0.0785378	-0.00556325	-0.396565	0.344063	-0.239714	0	0	-0.394646	0.0473772	-0.149319	-0.11433	-0.0498909	-0.627962	0.648529	0.717795	0	0	-0.278839	-0.269227	0.0866822	0.744637	1.43755	0	0
0.04	-0.0220302	1.28671	-1.5175	0.977277	1.41973	0.943762	-0.317915	-0.0751692	-0.151978	0.981562	-0.546049	0	0	-0.0979844	-0.00294682	-0.398149	0.337278	-0.235071	0	0	-0.397035	0.0474605	-0.156806	-0.116938	-0.0479213	-0.630283	0.654806	0.721996	0	0	-0.276053	-0.274929	0.0930818	0.752323	1.43502	0	0
0.05	-0.0179041	1.28574	-1.5169	0.978176	1.4098	0.944756	-0.288439	-0.0810018	-0.147589	1.02978	-0.574829	0	0	-0.114258	-0.00268583	-0.398494	0.33119	-0.230706	0	0	-0.397386	0.0488793	-0.162576	-0.119618	-0.0467595	-0.631304	0.660616	0.725402	0	0	-0.271031	-0.280733	0.101064	0.758664	1.43261	0	0
0.06	-0.0187735	1.28481	-1.51219	0.978946	1.40017	0.945825	-0.257056	-0.0854849	-0.143723	1.07781	-0.591472	0	0	-0.129693	-0.00447938	-0.397558	0.324673	-0.228	0	0	-0.398323	0.051409	-0.167159	-0.121304	-0.0466588	-0.630294	0.664698	0.728937	0	0	-0.264145	-0.286468	0.109144	0.764406	1.43204	0	0
0.07	-0.0234101	1.28315	-1.50435	0.979653	1.39078	0.947084	-0.225274	-0.0894128	-0.141351	1.12344	-0.591045	0	0	-0.14595	-0.00727236	-0.394189	0.316193	-0.226523	0	0	-0.400384	0.0549472	-0.170713	-0.121355	-0.0470717	-0.629417	0.666712	0.731754	0	0	-0.254974	-0.291817	0.117805	0.76854	1.43316	0	0
0.08	-0.0307749	1.28168	-1.49404	0.980346	1.38155	0.948418	-0.193579	-0.0926811	-0.139897	1.16468	-0.574549	0	0	-0.162171	-0.010393	-0.389531	0.30626	-0.226055	0	0	-0.402583	0.059244	-0.173832	-0.120991	-0.0482996	-0.627214	0.66742	0.735064	0	0	-0.244047	-0.296772	0.126324	0.771656	1.43504	0	0
0.09	-0.0396134	1.28119	-1.4824	0.981075	1.37248	0.949688	-0.16158	-0.0950389	-0.138223	1.20134	-0.545203	0	0	-0.177523	-0.0134157	-0.385601	0.296114	-0.225665	0	0	-0.403917	0.064052	-0.176741	-0.119603	-0.049618	-0.625978	0.666831	0.737204	0	0	-0.231495	-0.301351	0.135111	0.773718	1.43728	0	0
0.1	-0.0503841	1.28082	-1.46937	0.981833	1.36346	0.95091	-0.130204	-0.0964344	-0.136393	1.23222	-0.515996	0	0	-0.193152	-0.0164073	-0.384259	0.286261	-0.224192	0	0	-0.405038	0.0695818	-0.17925	-0.117746	-0.0507142	-0.626346	0.666362	0.737706	0	0	-0.218255	-0.304576	0.14166	0.774988	1.44077	0	0
0.11	-0.0634303	1.28112	-1.45463	0.982598	1.35435	0.952047	-0.0986752	-0.0966749	-0.13418	1.25674	-0.4937	0	0	-0.208444	-0.0195297	-0.385485	0.277113	-0.221564	0	0	-0.405148	0.0756972	-0.181064	-0.116255	-0.0523229	-0.62651	0.665533	0.738262	0	0	-0.204571	-0.306711	0.146548	0.775485	1.44616	0	0
0.12	-0.0776255	1.28137	-1.43697	0.983431	1.34547	0.95308	-0.0677115	-0.0959533	-0.133872	1.27467	-0.477982	0	0	-0.223059	-0.023067	-0.383898	0.269323	-0.217747	0	0	-0.405535	0.0827815	-0.183856	-0.115227	-0.0539138	-0.625607	0.665056	0.739887	0	0	-0.190168	-0.309291	0.151179	0.776901	1.45237	0	0
0.13	-0.093585	1.2824	-1.41712	0.984156	1.33658	0.953927	-0.036481	-0.0945584	-0.13458	1.28635	-0.46527	0	0	-0.23622	-0.0272761	-0.38189	0.262267	-0.212717	0	0	-0.404637	0.0904243	-0.18649	-0.114501	-0.0551127	-0.625244	0.664548	0.741053	0	0	-0.175198	-0.311837	0.155498	0.777865	1.45934	0	0
0.14	-0.111421	1.28288	-1.39662	0.984779	1.32784	0.954703	-0.00676493	-0.0919808	-0.134137	1.29183	-0.455505	0	0	-0.249281	-0.0320406	-0.381535	0.255163	-0.208323	0	0	-0.404383	0.0985081	-0.187688	-0.114237	-0.0563089	-0.624427	0.665378	0.742221	0	0	-0.159514	-0.313338	0.158402	0.778927	1.46591	0	0
0.15	-0.129365	1.28374	-1.37518	0.985412	1.31919	0.955367	0.0219171	-0.0889427	-0.134373	1.29135	-0.446048	0	0	-0.26088	-0.0374551	-0.379302	0.248485	-0.204203	0	0	-0.403774	0.106937	-0.188609	-0.114456	-0.0572004	-0.623657	0.666584	0.743163	0	0	-0.142853	-0.314389	0.160554	0.77976	1.47287	0	0
0.16	-0.146465	1.28492	-1.35389	0.986042	1.3106	0.955938	0.0494775	-0.0857473	-0.135468	1.28527	-0.434953	0	0	-0.271515	-0.0432931	-0.375876	0.242014	-0.2006	0	0	-0.402755	0.115358	-0.189959	-0.113832	-0.057257	-0.624342	0.667337	0.742333	0	0	-0.125582	-0.314763	0.161425	0.779909	1.47925	0	0
0.17	-0.162416	1.28633	-1.33361	0.986638	1.30208	0.956396	0.0761415	-0.0828238	-0.137087	1.27525	-0.421054	0	0	-0.281582	-0.0489673	-0.372155	0.235837	-0.197379	0	0	-0.401551	0.123397	-0.191208	-0.113152	-0.0573104	-0.624445	0.667793	0.741981	0	0	-0.107978	-0.314705	0.161323	0.780016	1.48486	0	0
0.18	-0.176461	1.28746	-1.31558	0.987117	1.29354	0.956737	0.100635	-0.0802397	-0.139145	1.2611	-0.404123	0	0	-0.292284	-0.0539086	-0.368285	0.229502	-0.194165	0	0	-0.400465	0.130746	-0.192173	-0.112787	-0.0573344	-0.624008	0.668803	0.742384	0	0	-0.0905922	-0.314069	0.159838	0.780719	1.48914	0	0
0.19	-0.188844	1.28824	-1.29891	0.987599	1.28499	0.956971	0.122418	-0.0775204	-0.140916	1.24239	-0.38515	0	0	-0.303668	-0.058341	-0.364775	0.222906	-0.190796	0	0	-0.39961	0.137683	-0.193369	-0.112376	-0.0572011	-0.623759	0.670147	0.742905	0	0	-0.073857	-0.313423	0.157445	0.782674	1.49224	0	0
0.2	-0.200571	1.28843	-1.28261	0.988007	1.27644	0.957126	0.141387	-0.074223	-0.142402	1.2191	-0.364829	0	0	-0.315835	-0.0628147	-0.361638	0.216167	-0.186771	0	0	-0.399122	0.144568	-0.194637	-0.111947	-0.0567226	-0.624096	0.671767	0.743393	0	0	-0.0573216	-0.312321	0.153882	0.785022	1.49414	0	0
0.21	-0.213839	1.29309	-1.26519	0.988242	1.26775	0.956946	0.163662	-0.071079	-0.142387	1.19278	-0.338479	0	0	-0.322971	-0.0662272	-0.357307	0.209862	-0.180375	0	0	-0.385434	0.155882	-0.179875	-0.128681	-0.0537224	-0.641845	0.690093	0.743934	0	0	-0.0147843	-0.3033	0.179909	0.749062	1.49631	0	0
0.22	-0.217287	1.28895	-1.25751	0.98836	1.25959	0.95692	0.173882	-0.0672667	-0.142145	1.16136	-0.319297	0	0	-0.339338	-0.0703291	-0.356571	0.204758	-0.174247	0	0	-0.362826	0.161085	-0.095485	-0.179124	-0.0332211	-0.738282	0.717712	0.745029	0	0	0.114311	-0.294483	0.383373	0.638712	1.41385	0	0
0.23	-0.202518	1.26771	-1.26595	0.988567	1.25235	0.957399	0.16132	-0.0628598	-0.143608	1.12304	-0.3031	0	0	-0.374597	-0.07561	-0.358537	0.198691	-0.169665	0	0	-0.357037	0.149429	-0.00778049	-0.213105	-0.0179088	-0.811719	0.702803	0.721188	0	0	0.244108	-0.273207	0.623062	0.542343	1.29274	0	0
0.24	-0.201631	1.26143	-1.26157	0.98867	1.24431	0.957216	0.162984	-0.0575176	-0.140517	1.07967	-0.292466	0	0	-0.392369	-0.0800664	-0.357889	0.194657	-0.165721	0	0	-0.359523	0.146898	0.000509379	-0.21008	-0.0172801	-0.817036	0.689954	0.716881	0	0	0.271851	-0.267256	0.643317	0.536659	1.28045	0	0
0.25	-0.203488	1.25932	-1.25522	0.988653	1.23597	0.956811	0.166731	-0.0519577	-0.134953	1.03096	-0.284221	0	0	-0.405467	-0.084007	-0.356763	0.190869	-0.1616	0	0	-0.362447	0.14788	0.00154872	-0.206105	-0.0166571	-0.818281	0.685761	0.715372	0	0	0.291559	-0.265293	0.653337	0.539035	1.26683	0	0
0.26	-0.204601	1.25761	-1.24999	0.988574	1.22759	0.956313	0.168128	-0.0466346	-0.129092	0.976919	-0.278011	0	0	-0.417992	-0.0875973	-0.355536	0.187554	-0.157258	0	0	-0.365669	0.148519	0.000706151	-0.200798	-0.0168176	-0.817273	0.680989	0.714927	0	0	0.308086	-0.264437	0.65686	0.545219	1.25371	0	0
0.27	-0.205303	1.25651	-1.24552	0.988437	1.21913	0.95568	0.167422	-0.0418795	-0.124211	0.918569	-0.272112	0	0	-0.429805	-0.0909827	-0.354312	0.184716	-0.152792	0	0	-0.368796	0.148826	-0.00139721	-0.193928	-0.0171338	-0.816099	0.675655	0.713898	0	0	0.322393	-0.264313	0.656078	0.553633	1.24232	0	0
0.28	-0.205957	1.25611	-1.24166	0.988247	1.21052	0.954842	0.164925	-0.0380784	-0.121775	0.85705	-0.265464	0	0	-0.44079	-0.0939956	-0.353448	0.182635	-0.147925	0	0	-0.371433	0.149008	-0.00385236	-0.187145	-0.0177511	-0.814017	0.670792	0.713033	0	0	0.335215	-0.264139	0.653248	0.562527	1.23584	0	0
0.29	-0.205445	1.25676	-1.23958	0.988067	1.20176	0.953774	0.160829	-0.0356745	-0.121763	0.792611	-0.257782	0	0	-0.450821	-0.0957936	-0.351911	0.181114	-0.142396	0	0	-0.373206	0.148707	-0.00630792	-0.180528	-0.0183432	-0.812048	0.66665	0.711504	0	0	0.346708	-0.263506	0.648352	0.571439	1.23498	0	0
0.3	-0.203386	1.25845	-1.23947	0.98788	1.19277	0.952478	0.155686	-0.0351859	-0.125612	0.726151	-0.24976	0	0	-0.460407	-0.0964244	-0.349941	0.179558	-0.136038	0	0	-0.373828	0.147815	-0.00861505	-0.17489	-0.0188802	-0.809899	0.663549	0.710086	0	0	0.356503	-0.262294	0.640331	0.580404	1.23759	0	0
0.31	-0.200251	1.26076	-1.24098	0.987643	1.18353	0.951	0.149424	-0.0358713	-0.133358	0.657624	-0.242512	0	0	-0.470036	-0.0964438	-0.348231	0.178252	-0.128755	0	0	-0.373716	0.146259	-0.0108775	-0.170127	-0.0190968	-0.80725	0.661798	0.708235	0	0	0.364507	-0.260942	0.629728	0.590132	1.24244	0	0
0.32	-0.196299	1.2639	-1.24431	0.987301	1.1741	0.949346	0.142315	-0.0367929	-0.143172	0.586026	-0.237401	0	0	-0.479217	-0.0956239	-0.347207	0.177246	-0.121261	0	0	-0.372815	0.144012	-0.0124701	-0.166251	-0.0193452	-0.803818	0.660887	0.706739	0	0	0.371171	-0.259531	0.617966	0.60024	1.24968	0	0
0.33	-0.191591	1.26696	-1.24906	0.986797	1.16447	0.947631	0.132889	-0.0366794	-0.154304	0.509272	-0.237306	0	0	-0.48879	-0.0945494	-0.346543	0.176271	-0.113398	0	0	-0.371882	0.141451	-0.0139677	-0.16315	-0.0196672	-0.798915	0.660705	0.705449	0	0	0.376082	-0.258057	0.60341	0.610642	1.2609	0	0
0.34	-0.186614	1.27024	-1.25446	0.986053	1.15459	0.94585	0.121498	-0.0356502	-0.164705	0.429845	-0.239763	0	0	-0.498318	-0.0936141	-0.345708	0.175432	-0.106639	0	0	-0.370298	0.13846	-0.0152626	-0.160812	-0.0195367	-0.793916	0.660811	0.70389	0	0	0.379829	-0.256436	0.5884	0.620601	1.27249	0	0
0.35	-0.180891	1.27347	-1.26055	0.985148	1.14454	0.944084	0.107404	-0.0336989	-0.173769	0.346395	-0.248628	0	0	-0.507791	-0.092926	-0.344082	0.174909	-0.100542	0	0	-0.368538	0.135221	-0.0172393	-0.158519	-0.0192801	-0.788368	0.660409	0.701308	0	0	0.381957	-0.25445	0.570615	0.630251	1.28607	0	0
0.36	-0.17361	1.28123	-1.26953	0.983862	1.13416	0.941756	0.103961	-0.0390043	-0.18861	0.285467	-0.249881	0	0	-0.511961	-0.0907054	-0.342715	0.177071	-0.0941297	0	0	-0.361606	0.129334	-0.0183435	-0.15703	-0.0182461	-0.783979	0.658996	0.698996	0	0	0.382696	-0.25453	0.556978	0.640945	1.29666	0	0
